<?xml version="1.0" encoding="iso-8859-1"?>
<!-- Generator: Adobe Illustrator 19.0.0, SVG Export Plug-In . SVG Version: 6.00 Build 0)  -->
<svg version="1.1" id="Layer_1" xmlns="http://www.w3.org/2000/svg" xmlns:xlink="http://www.w3.org/1999/xlink" x="0px" y="0px"
	 viewBox="0 0 512 512" style="enable-background:new 0 0 512 512;" xml:space="preserve">
<path style="fill:#B3404A;" d="M245.638,228.071c3.024,2.438,6.694,3.655,10.362,3.655c3.668,0,7.338-1.219,10.362-3.655
	L406.99,114.751c3.891-3.135,6.154-7.863,6.154-12.861v-2.486c0-9.122-7.394-16.516-16.516-16.516H115.374
	c-9.122,0-16.516,7.394-16.516,16.516v2.486v205.932v1.855c0,9.122,7.394,16.516,16.516,16.516h281.254
	c9.122,0,16.516-7.394,16.516-16.516c0-0.302-0.03-0.598-0.045-0.895c0.015-0.266,0.035-0.533,0.038-0.799
	c0-0.053,0.008-0.104,0.008-0.159V192.975c0-9.122-7.394-16.516-16.516-16.516c-9.122,0-16.516,7.394-16.516,16.516v78.886
	l-52.408-45.019c-6.919-5.943-17.347-5.153-23.292,1.766s-5.153,17.347,1.766,23.292l48.033,41.261H157.79l48.035-41.261
	c6.919-5.944,7.71-16.371,1.766-23.292c-5.944-6.919-16.371-7.71-23.292-1.766l-52.408,45.019v-135.45L245.638,228.071z
	 M352.894,115.921L256,193.999l-96.892-78.078H352.894z"/>
<rect x="33.854" y="388.137" style="fill:#F4B2B0;" width="444.293" height="107.352"/>
<path style="fill:#B3404A;" d="M478.146,327.617c9.122,0,16.516-7.394,16.516-16.516V16.516C494.663,7.394,487.268,0,478.146,0
	H33.854c-9.122,0-16.516,7.394-16.516,16.516v371.615v30.356v76.996c0,9.122,7.394,16.516,16.516,16.516h444.292
	c9.122,0,16.516-7.394,16.516-16.516V388.132c0-9.122-7.394-16.516-16.516-16.516H50.37V33.033h411.26v278.068
	C461.63,320.223,469.024,327.617,478.146,327.617z M461.63,404.648v74.319H50.37v-60.48v-13.839H461.63z"/>
<g>
</g>
<g>
</g>
<g>
</g>
<g>
</g>
<g>
</g>
<g>
</g>
<g>
</g>
<g>
</g>
<g>
</g>
<g>
</g>
<g>
</g>
<g>
</g>
<g>
</g>
<g>
</g>
<g>
</g>
</svg>
